<svg xmlns="http://www.w3.org/2000/svg" xmlns:xlink="http://www.w3.org/1999/xlink" version="1.1" id="Capa_1" x="0px" y="0px" viewBox="0 0 284 284" style="enable-background:new 0 0 284 284;" xml:space="preserve" width="40px" height="40px">
	<path d="M283.746,171.325l-2.107-8.444l-3.055-1.734l0.364-4.57c-3.653,2.012-7.638,3.241-11.989,3.685   c-2.724,0.277-6.707,0.263-11.945-0.013c-5.253-0.299-9.382-0.281-12.358,0.021l-6.079,1.02l-3.963-2.486l-2.354,1.079   l-5.564-1.907c-3.265,0.332-5.989,4.586-8.165,12.771c-0.818,0.084-4.381,0.312-10.652,0.673   c-4.912,0.225-8.285-0.521-10.121-2.268c3.992-3.978,5.752-8.27,5.282-12.9c-0.11-1.088-6.012-7.896-17.735-20.446   c-13.5-14-20.924-22.026-22.236-24.109l-2.75-7.237l21.018,0.297c-8.362-2.653-14.881-4.551-19.553-5.692l2.827-0.703l10.163,2.678   l-10.226-7.203l3.589-1.188l-4.805-2.798l1.736-3.071c0.541-0.056,1.727,0.175,3.577,0.674c1.834,0.488,3.415,0.541,4.76,0.125   l-11.771-6.214c0.27-0.027,4.711-1.029,13.297-3.012c5.105-1.059,9.217-2.575,12.313-4.539   c-15.146-3.123-27.868-6.508-38.112-10.135c1.146-7.531,2.219-13.131,3.23-16.805c5.018-1.886,11.241-6.916,18.648-15.087   c7.416-8.169,14.465-13.136,21.145-14.911l-11.703-1.697c-5.993,0.609-17.288,5.605-33.917,14.98   c-16.614,9.384-27.409,16.663-32.38,21.828C93.116,40.472,80.069,32.331,72.99,27.556c0.886,8.702,4.741,16.891,11.576,24.579   c6.819,7.675,14.558,13.546,23.198,17.613c-0.112,4.13-2.005,7.762-5.676,10.876c-3.659,3.12-5.381,5.763-5.159,7.938l0.333,3.271   c2.094-1.037,3.938-1.643,5.575-1.81c4.889-0.497,7.611,1.973,8.164,7.413l-0.383,8.266l2.115,0.624l6.402-6.021l0.525,1.192   l-2.721,5.624l2.205,5.551c-8.696,17.093-13.909,26.554-15.649,28.381c-3.91,4.791-13.443,10.977-28.604,18.564l-10.686-3.859   l1.31,4.814c-1.883,0.461-21.543-1.107-58.987-4.72L0,156.514l3.555,2.531c29.603,1.928,49.266,3.627,59.025,5.113   c3.356,3.235,5.71,4.77,7.068,4.631c4.62-0.47,7.936-1.617,9.945-3.482l7.026,4.241l14.236-1.862   c0.138,1.365-1.787,9.391-5.789,24.07c5.632,1.353,8.969,7.194,10.019,17.521c0.997,9.79,1.337,15.801,1.028,18.019   c-0.095,6.883-2.069,12.162-5.946,15.857c0.359,3.535-1.056,6.568-4.255,9.081c-3.188,2.522-6.255,4.901-9.211,7.108   c9.425,0.977,17.795-4.406,25.123-16.15l4.054,3.311l1.585-0.577c-0.193-1.897-2.36-7.039-6.509-15.397   c1.558-8.964,2.915-15.822,4.082-20.613c6.994,3.961,12.977,8.84,17.964,14.646c1.562,1.779,6.161,7.76,13.793,17.968   c-1.754,7.04-3.486,11.829-5.137,14.321c-1.681,2.514-5.481,5.717-11.383,9.615l1.043,2.354   c9.537-3.701,17.796-10.185,24.823-19.409l4.643,1.159c0.383-1.67-2.09-5.613-7.377-11.805c-5.297-6.183-8.367-10.617-9.184-13.283   l1.482-1.787c2.527,0.56,9.832,1.05,21.971,1.465c10.193,0.338,16.887,1.311,20.076,2.902c0.564,0.215,2.947,2.037,7.145,5.455   c3.287,2.689,6.167,3.903,8.615,3.655l5.453-3.024l6.94,3.414c7.489-7.357,13.827-11.303,18.997-11.828l1.212-0.123   c-10.764-3.268-21.692-9.379-32.767-18.344c-12.001-9.959-19.034-19.732-21.113-29.35l8.521-5.367   c11.125,1.338,19.509,2.816,25.17,4.439c0.643,8.99,3.136,13.271,7.486,12.828c1.352-0.137,2.814-0.695,4.354-1.674l4.002,2.887   l2.646-2.332c1.83,1.707,8.626,3.684,20.395,5.974c13.148,2.415,21.579,4.368,25.316,5.856   C283.368,189.218,284.576,179.483,283.746,171.325z" fill="#cf8f2a"/>
</svg>
